<svg width="100" height="100" viewBox="0 0 100 100" fill="none" xmlns="http://www.w3.org/2000/svg">
<path d="M59.0979 75.0003H50L31.25 64.667L8.35205 73.0878L14.6062 85.4712L29.3396 79.3191C43.125 87.5503 51.5146 91.667 54.5104 91.667C57.5062 91.667 69.8916 86.1107 91.6666 75.0003" stroke="#1A0727" stroke-width="8.33333" stroke-linecap="round" stroke-linejoin="round"/>
<path d="M60.3998 56.2252V46.496C62.6915 45.5439 65.6978 44.1522 67.4248 42.4252C70.0471 39.8029 71.8328 36.462 72.5563 32.8248C73.2797 29.1877 72.9084 25.4177 71.4892 21.9916C70.0701 18.5655 67.6668 15.6372 64.5834 13.5769C61.5 11.5167 57.8749 10.417 54.1665 10.417C50.4581 10.417 46.833 11.5167 43.7496 13.5769C40.6662 15.6372 38.2629 18.5655 36.8438 21.9916C35.4246 25.4177 35.0533 29.1877 35.7768 32.8248C36.5002 36.462 38.286 39.8029 40.9082 42.4252C42.6353 44.1522 45.6248 45.5439 47.9165 46.4939C47.929 47.1918 47.929 50.4356 47.9165 56.2231L60.3998 56.2252Z" stroke="#1A0727" stroke-width="8.33333" stroke-linejoin="round"/>
<path d="M25.0001 43.7502L27.0834 41.6668M83.3334 43.7502L81.2501 41.6668M31.2501 10.4168L29.1667 8.3335M77.0834 10.4168L79.1667 8.3335M85.4167 25.0002H83.3334M25.0001 25.0002H22.9167" stroke="#1A0727" stroke-width="8.33333" stroke-linecap="round"/>
</svg>
