<svg width="84" height="88" viewBox="0 0 84 88" fill="none" xmlns="http://www.w3.org/2000/svg">
<path d="M50.1667 37.6665H41.8334V29.3332H50.1667V37.6665ZM50.1667 20.9998H41.8334V0.166504H50.1667V20.9998ZM25.1667 70.9998C20.5834 70.9998 16.8751 74.7498 16.8751 79.3332C16.8751 83.9165 20.5834 87.6665 25.1667 87.6665C29.7501 87.6665 33.5001 83.9165 33.5001 79.3332C33.5001 74.7498 29.7501 70.9998 25.1667 70.9998ZM66.8334 70.9998C62.2501 70.9998 58.5417 74.7498 58.5417 79.3332C58.5417 83.9165 62.2501 87.6665 66.8334 87.6665C71.4167 87.6665 75.1667 83.9165 75.1667 79.3332C75.1667 74.7498 71.4167 70.9998 66.8334 70.9998ZM29.7501 50.1665H60.7917C63.9167 50.1665 66.6667 48.4582 68.0834 45.8748L83.5001 16.6665L76.2084 12.6665L60.7917 41.8332H31.5417L13.7917 4.33317H0.166748V12.6665H8.50008L23.5001 44.2915L17.8751 54.4582C14.8334 60.0415 18.8334 66.8332 25.1667 66.8332H75.1667V58.4998H25.1667L29.7501 50.1665Z" fill="#1A0727"/>
</svg>
