<svg width="100" height="100" viewBox="0 0 100 100" fill="none" xmlns="http://www.w3.org/2000/svg">
<path d="M49.9999 29.1668C52.3011 29.1668 54.1666 27.3013 54.1666 25.0002C54.1666 22.699 52.3011 20.8335 49.9999 20.8335C47.6987 20.8335 45.8333 22.699 45.8333 25.0002C45.8333 27.3013 47.6987 29.1668 49.9999 29.1668Z" fill="#1A0727"/>
<path d="M25 70.8335H75V79.1668H25V70.8335ZM41.6667 49.2918L53.3 60.9335L69.6833 44.5377L75 50.0002V33.3335H58.3333L63.7917 38.646L53.2958 49.1418L41.6667 37.5002L25 54.1668L30.8917 60.0585L41.6667 49.2918Z" fill="#1A0727"/>
<path d="M79.1666 12.4999H65.4249C65.0158 11.8838 64.5706 11.2925 64.0916 10.729L64.0499 10.679C60.9886 7.11342 56.6814 4.85106 52.0083 4.35404C50.6813 4.10139 49.3186 4.10139 47.9916 4.35404C43.3184 4.85106 39.0113 7.11342 35.9499 10.679L35.9083 10.729C35.4294 11.2911 34.9842 11.8811 34.5749 12.4957L20.8333 12.4999C17.5191 12.5032 14.3416 13.8212 11.9981 16.1647C9.65458 18.5082 8.33656 21.6857 8.33325 24.9999V83.3332C8.33656 86.6474 9.65458 89.8249 11.9981 92.1684C14.3416 94.5119 17.5191 95.8299 20.8333 95.8332H79.1666C82.4808 95.8299 85.6583 94.5119 88.0018 92.1684C90.3453 89.8249 91.6633 86.6474 91.6666 83.3332V24.9999C91.6633 21.6857 90.3453 18.5082 88.0018 16.1647C85.6583 13.8212 82.4808 12.5032 79.1666 12.4999ZM83.3333 83.3332C83.3333 84.4383 82.8943 85.4981 82.1129 86.2795C81.3315 87.0609 80.2717 87.4999 79.1666 87.4999H20.8333C19.7285 87.4988 18.6694 87.0594 17.8882 86.2783C17.107 85.4971 16.6677 84.4379 16.6666 83.3332V24.9999C16.6677 23.8951 17.107 22.836 17.8882 22.0548C18.6694 21.2737 19.7285 20.8343 20.8333 20.8332H39.7916C40.2697 18.4784 41.5473 16.3614 43.4077 14.8408C45.2682 13.3201 47.5971 12.4894 49.9999 12.4894C52.4027 12.4894 54.7317 13.3201 56.5921 14.8408C58.4526 16.3614 59.7301 18.4784 60.2082 20.8332H79.1666C80.2713 20.8343 81.3305 21.2737 82.1116 22.0548C82.8928 22.836 83.3321 23.8951 83.3333 24.9999V83.3332Z" fill="#1A0727"/>
</svg>
