<svg width="100" height="100" viewBox="0 0 100 100" fill="none" xmlns="http://www.w3.org/2000/svg">
<path d="M83.3333 8.3335H16.6666C12.0833 8.3335 8.37492 12.0835 8.37492 16.6668L8.33325 91.6668L24.9999 75.0002H83.3333C87.9166 75.0002 91.6666 71.2502 91.6666 66.6668V16.6668C91.6666 12.0835 87.9166 8.3335 83.3333 8.3335ZM83.3333 66.6668H21.5416L19.0833 69.1252L16.6666 71.5418V16.6668H83.3333V66.6668ZM43.7499 58.3335H74.9999V50.0002H52.0833L43.7499 58.3335ZM59.8332 33.8752C60.6666 33.0418 60.6666 31.7502 59.8332 30.9168L52.4583 23.5418C51.6249 22.7085 50.3333 22.7085 49.4999 23.5418L24.9999 48.0418V58.3335H35.2916L59.8332 33.8752Z" fill="#1A0727"/>
</svg>
